<svg width="273" height="90" viewBox="0 0 273 90" fill="none" xmlns="http://www.w3.org/2000/svg">
<rect x="6.68431" y="28.2332" width="261.519" height="60" transform="rotate(-3.98796 6.68431 28.2332)" fill="black" stroke="black" stroke-width="2"/>
<rect x="1.06713" y="19.6028" width="258.499" height="61" transform="rotate(-3.98796 1.06713 19.6028)" fill="#F5F5F5" stroke="black" stroke-width="2"/>
<path d="M28.4356 61.0555C34.4371 60.6371 38.3897 57.0576 38.4508 51.953L32.8005 52.3469C32.5346 54.5146 30.6831 56.023 28.0654 56.2055C24.9051 56.4259 22.2274 54.3671 21.9248 50.0256C21.6221 45.6842 24.0201 43.2716 27.1485 43.0535C29.7342 42.8732 31.7453 44.1123 32.1817 46.2311L38.1512 45.8149C37.1908 40.7815 32.7478 37.7873 26.8422 38.199C20.6811 38.6285 15.6899 42.9541 16.2106 50.424C16.7314 57.8939 22.1469 61.494 28.4356 61.0555ZM52.4451 59.3817C59.085 58.9188 63.6628 53.7238 63.2043 47.1478C62.7459 40.5718 57.4915 36.0623 50.8516 36.5252C44.1479 36.9925 39.5382 42.1897 39.9966 48.7657C40.4551 55.3418 45.7414 59.849 52.4451 59.3817ZM52.0749 54.5317C48.5953 54.7743 45.9415 52.1365 45.6789 48.3696C45.4162 44.6027 47.6784 41.6222 51.158 41.3796C54.6056 41.1393 57.2595 43.7771 57.5221 47.5439C57.7847 51.3108 55.5225 54.2913 52.0749 54.5317ZM72.127 57.7529L71.3035 45.9416L77.2346 57.3969L81.2568 57.1164L85.5091 44.9513L86.3325 56.7626L91.5678 56.3976L90.0099 34.0518L83.8489 34.4814L78.6849 49.2122L71.5268 35.3404L65.3338 35.7722L66.8917 58.1179L72.127 57.7529ZM101.161 55.7288L99.6036 33.383L93.8895 33.7814L95.4474 56.1271L101.161 55.7288ZM110.731 55.0616L109.801 41.718L118.616 54.5119L124.586 54.0957L123.028 31.75L117.346 32.1461L118.276 45.4897L109.461 32.6958L103.491 33.112L105.049 55.4578L110.731 55.0616ZM138.629 53.3733C141.311 53.1864 143.386 51.6624 143.877 49.511L144.102 52.7351L149.082 52.388L148.452 43.3539C148.337 41.6939 146.995 39.927 144.728 40.085L138.439 40.5234L138.729 44.6733L142.719 44.3951C143.038 44.3729 143.245 44.583 143.27 44.9341C143.379 46.4983 141.027 48.6511 138.633 48.818C135.281 49.0517 132.374 46.4636 132.087 42.3456C131.8 38.2276 134.342 35.5804 137.789 35.3401C140.439 35.1553 142.163 36.4145 142.601 38.5652L148.156 38.178C147.617 33.2114 143.325 30.0783 137.515 30.4834C131.45 30.9062 126.192 35.09 126.724 42.7195C127.256 50.349 132.851 53.7761 138.629 53.3733ZM166.311 51.4435C171.45 51.0852 174.579 48.1084 174.283 43.8627C173.653 34.8286 162.782 39.4679 162.49 35.2861C162.421 34.2965 163.3 33.5616 164.705 33.4636C166.46 33.3412 167.61 34.1913 167.838 35.6189L173.201 35.245C172.832 30.8761 169.346 28.2642 164.366 28.6114C159.801 28.9297 156.735 31.8701 156.999 35.6689C157.634 44.7668 168.345 40.5877 168.608 44.3546C168.694 45.5996 167.665 46.4733 165.973 46.5912C164.057 46.7248 162.696 45.6007 162.437 43.7262L157.01 44.1045C157.506 48.9137 161.171 51.8018 166.311 51.4435ZM188.022 49.9298C194.662 49.4669 199.24 44.272 198.781 37.6959C198.323 31.1199 193.069 26.6104 186.429 27.0733C179.725 27.5407 175.115 32.7378 175.574 39.3139C176.032 45.8899 181.319 50.3972 188.022 49.9298ZM187.652 45.0798C184.173 45.3224 181.519 42.6846 181.256 38.9177C180.993 35.1509 183.256 32.1703 186.735 31.9278C190.183 31.6874 192.837 34.3252 193.099 38.0921C193.362 41.8589 191.1 44.8395 187.652 45.0798ZM213.149 48.1781C219.789 47.7152 224.366 42.5203 223.908 35.9442C223.45 29.3682 218.195 24.8587 211.555 25.3216C204.852 25.789 200.242 30.9861 200.7 37.5622C201.159 44.1382 206.445 48.6455 213.149 48.1781ZM212.779 43.3281C209.299 43.5707 206.645 40.9329 206.383 37.166C206.12 33.3992 208.382 30.4186 211.862 30.176C215.309 29.9357 217.963 32.5735 218.226 36.3404C218.488 40.1072 216.226 43.0878 212.779 43.3281ZM233.278 46.5182L232.347 33.1746L241.162 45.9685L247.132 45.5523L245.574 23.2066L239.892 23.6027L240.822 36.9463L232.007 24.1524L226.038 24.5686L227.595 46.9144L233.278 46.5182Z" fill="#1B1620"/>
</svg>
